# xmcd
# 
# Track frame offsets:
#     150
#     20829
#     35574
#     54003
#     75434
#     103875
#     119412
#     140077
#     159531
#     176324
#     194315
#     212412
# 
# Disc length: 3025
# 
# Revision: 1
# Processed by: cddbd v1.5.2PL0 Copyright (c) Steve Scherf et al.
# Submitted via: fre:ac v1.0.27
# 
DISCID=9d0bcf0c
DTITLE=Darrell Scott - The Invisible Man
DYEAR=2006
DGENRE=Country-influenced Rock
TTITLE0=Hank William's Ghost
TTITLE1=There's a Stone Around My Belly
TTITLE2=Shattered Cross
TTITLE3=I'm Nobody
TTITLE4=And the River Is Me
TTITLE5=Let's Call It a Life
TTITLE6=The Dreamer
TTITLE7=Do It or Die Trying
TTITLE8=The Invisible Man
TTITLE9=Goodle, U.S.A.
TTITLE10=Looking Glass
TTITLE11=In My Final Hour
EXTD=
EXTT0=
EXTT1=
EXTT2=
EXTT3=
EXTT4=
EXTT5=
EXTT6=
EXTT7=
EXTT8=
EXTT9=
EXTT10=
EXTT11=
PLAYORDER=
